<svg xmlns="http://www.w3.org/2000/svg" x="0px" y="0px"
width="24" height="24"
viewBox="0 0 24 24">
    <path d="M 9 1 C 5.773 1 3.91975 2.2759687 3.21875 3.1679688 C 2.88975 3.5869688 2.9368906 4.1841563 3.3378906 4.5351562 C 4.2168906 5.3051562 6 6.903625 6 9.015625 C 6 9.015625 3 11.013766 3 14.009766 C 3 20.002766 7 20.003906 7 20.003906 L 8 20.003906 C 10.248 22.171906 13.218453 22.778406 14.439453 22.941406 C 14.739453 22.981406 15 22.748312 15 22.445312 L 15 19.003906 C 20.072 18.534906 22.285625 13.660969 23.015625 9.5429688 C 23.079625 9.1809687 22.731906 8.8823281 22.378906 8.9863281 C 20.968906 9.4023281 17.740281 10.52625 15.238281 11.28125 C 14.995281 11.35425 14.740437 11.230141 14.648438 10.994141 C 14.458438 10.507141 14.209391 10.001234 13.900391 9.6152344 C 13.200391 8.6162344 12.300781 7.8175781 11.300781 7.5175781 C 11.500781 7.3185781 12.5 7 13.5 7 C 15.165 7 16.475797 8.3445781 17.216797 8.8925781 C 17.566797 9.1515781 18.072 8.851875 18 8.421875 C 17.416 4.900875 15.5 1 9 1 z M 10.105469 9.2402344 C 10.780469 9.2590312 11.625781 9.839 12.300781 10.8125 C 13.200781 12.0115 13.299609 13.410156 12.599609 13.910156 C 12.282913 14.135916 11.863315 14.126237 11.416016 13.939453 A 1.753 1.193 44.983 0 0 11.740234 13.738281 A 1.753 1.193 44.983 0 0 11.34375 11.65625 A 1.753 1.193 44.983 0 0 9.2597656 11.261719 A 1.753 1.193 44.983 0 0 9.2324219 11.291016 C 8.9717836 10.465218 9.0247113 9.7535544 9.5 9.4140625 C 9.675 9.2893125 9.8804688 9.2339688 10.105469 9.2402344 z M 20.541016 11.849609 C 18.841016 16.043609 16.3 17.106078 14.5 17.205078 C 12.94 17.330078 12.352812 17.02625 12.132812 16.78125 C 11.970812 16.60125 11.747859 16.494422 11.505859 16.482422 C 10.658859 16.440422 10.190937 17.505641 10.835938 18.056641 C 11.374937 18.517641 12.136 18.850906 13 19.003906 L 13 20.302734 C 11.503 20.209734 10.180266 19.154172 9.1972656 18.201172 C 9.0722656 18.080172 8.9014688 18.044078 8.7304688 18.080078 C 7.3164688 18.376078 5.249 17.353766 6 15.009766 C 6.358 14.026766 7.0357812 13.523156 7.6757812 13.285156 C 7.8217812 13.341156 7.94775 13.389313 8.09375 13.445312 C 9.09175 15.043313 10.648609 16.007812 12.099609 16.007812 C 12.699609 16.007812 13.300781 15.808766 13.800781 15.509766 C 14.300781 15.109766 14.700391 14.710328 14.900391 14.111328 C 16.900391 13.412328 19.741016 12.248609 20.541016 11.849609 z"></path>
</svg>